HIERARCHY
ROOT hip
{
  OFFSET 0 0 0
  CHANNELS 6 Xposition Yposition Zposition Zrotation Yrotation Xrotation
  JOINT abdomen
  {
    OFFSET 0 20.6881 -0.73152
    CHANNELS 3 Zrotation Xrotation Yrotation
    JOINT chest
    {
      OFFSET 0 11.7043 -0.48768
      CHANNELS 3 Zrotation Xrotation Yrotation
      JOINT neck
      {
        OFFSET 0 22.1894 -2.19456
        CHANNELS 3 Zrotation Xrotation Yrotation
        JOINT head
        {
          OFFSET -0.24384 7.07133 1.2192
          CHANNELS 3 Zrotation Xrotation Yrotation
          JOINT leftEye
          {
            OFFSET 4.14528 8.04674 8.04672
            CHANNELS 3 Zrotation Xrotation Yrotation
            End Site
            {
              OFFSET 1 0 0
            }
          }
          JOINT rightEye
          {
            OFFSET -3.6576 8.04674 8.04672
            CHANNELS 3 Zrotation Xrotation Yrotation
            End Site
            {
              OFFSET 1 0 0
            }
          }
        }
      }
      JOINT rCollar
      {
        OFFSET -2.68224 19.2634 -4.8768
        CHANNELS 3 Zrotation Xrotation Yrotation
        JOINT rShldr
        {
          OFFSET -8.77824 -1.95073 1.46304
          CHANNELS 3 Zrotation Xrotation Yrotation
          JOINT rForeArm
          {
            OFFSET -28.1742 -1.7115 0.48768
            CHANNELS 3 Zrotation Xrotation Yrotation
            JOINT rHand
            {
              OFFSET -22.5879 0.773209 7.07136
              CHANNELS 3 Zrotation Xrotation Yrotation
              JOINT rThumb1
              {
                OFFSET -1.2192 -0.487915 3.41376
                CHANNELS 3 Zrotation Xrotation Yrotation
                JOINT rThumb2
                {
                  OFFSET -3.37035 -0.52449 3.41376
                  CHANNELS 3 Zrotation Xrotation Yrotation
                  End Site
                  {
                    OFFSET -1.78271 -1.18214 1.43049
                  }
                }
              }
              JOINT rIndex1
              {
                OFFSET -7.75947 0.938293 5.60832
                CHANNELS 3 Zrotation Xrotation Yrotation
                JOINT rIndex2
                {
                  OFFSET -2.54057 -0.884171 1.56538
                  CHANNELS 3 Zrotation Xrotation Yrotation
                  End Site
                  {
                    OFFSET -1.62519 -0.234802 1.16502
                  }
                }
              }
              JOINT rMid1
              {
                OFFSET -8.24714 1.18213 3.41376
                CHANNELS 3 Zrotation Xrotation Yrotation
                JOINT rMid2
                {
                  OFFSET -3.10165 -0.590103 1.0647
                  CHANNELS 3 Zrotation Xrotation Yrotation
                  End Site
                  {
                    OFFSET -2.48547 -0.328903 0.83742
                  }
                }
              }
              JOINT rRing1
              {
                OFFSET -8.82822 0.546677 1.51678
                CHANNELS 3 Zrotation Xrotation Yrotation
                JOINT rRing2
                {
                  OFFSET -2.60934 -0.819778 -0.0198488
                  CHANNELS 3 Zrotation Xrotation Yrotation
                  End Site
                  {
                    OFFSET -2.33842 -0.294052 0.168128
                  }
                }
              }
              JOINT rPinky1
              {
                OFFSET -8.27202 -0.0477905 -0.4584
                CHANNELS 3 Zrotation Xrotation Yrotation
                JOINT rPinky2
                {
                  OFFSET -1.82734 -0.647385 -0.700984
                  CHANNELS 3 Zrotation Xrotation Yrotation
                  End Site
                  {
                    OFFSET -1.69225 -0.51767 -0.607171
                  }
                }
              }
            }
          }
        }
      }
      JOINT lCollar
      {
        OFFSET 2.68224 19.2634 -4.8768
        CHANNELS 3 Zrotation Xrotation Yrotation
        JOINT lShldr
        {
          OFFSET 8.77824 -1.95073 1.46304
          CHANNELS 3 Zrotation Xrotation Yrotation
          JOINT lForeArm
          {
            OFFSET 28.1742 -1.7115 0.48768
            CHANNELS 3 Zrotation Xrotation Yrotation
            JOINT lHand
            {
              OFFSET 22.5879 0.773209 7.07136
              CHANNELS 3 Zrotation Xrotation Yrotation
              JOINT lThumb1
              {
                OFFSET 1.2192 -0.487915 3.41376
                CHANNELS 3 Zrotation Xrotation Yrotation
                JOINT lThumb2
                {
                  OFFSET 3.37035 -0.52449 3.41376
                  CHANNELS 3 Zrotation Xrotation Yrotation
                  End Site
                  {
                    OFFSET 1.78271 -1.18214 1.43049
                  }
                }
              }
              JOINT lIndex1
              {
                OFFSET 7.75947 0.938293 5.60832
                CHANNELS 3 Zrotation Xrotation Yrotation
                JOINT lIndex2
                {
                  OFFSET 2.54057 -0.884171 1.56538
                  CHANNELS 3 Zrotation Xrotation Yrotation
                  End Site
                  {
                    OFFSET 1.62519 -0.234802 1.16502
                  }
                }
              }
              JOINT lMid1
              {
                OFFSET 8.24714 1.18213 3.41376
                CHANNELS 3 Zrotation Xrotation Yrotation
                JOINT lMid2
                {
                  OFFSET 3.10165 -0.590103 1.0647
                  CHANNELS 3 Zrotation Xrotation Yrotation
                  End Site
                  {
                    OFFSET 2.48547 -0.328903 0.83742
                  }
                }
              }
              JOINT lRing1
              {
                OFFSET 8.82822 0.546677 1.51678
                CHANNELS 3 Zrotation Xrotation Yrotation
                JOINT lRing2
                {
                  OFFSET 2.60934 -0.819778 -0.0198488
                  CHANNELS 3 Zrotation Xrotation Yrotation
                  End Site
                  {
                    OFFSET 2.33842 -0.294052 0.168128
                  }
                }
              }
              JOINT lPinky1
              {
                OFFSET 8.27202 -0.0477905 -0.4584
                CHANNELS 3 Zrotation Xrotation Yrotation
                JOINT lPinky2
                {
                  OFFSET 1.82734 -0.647385 -0.700984
                  CHANNELS 3 Zrotation Xrotation Yrotation
                  End Site
                  {
                    OFFSET 1.69225 -0.51767 -0.607171
                  }
                }
              }
            }
          }
        }
      }
    }
  }
  JOINT rButtock
  {
    OFFSET -8.77824 4.35084 1.2192
    CHANNELS 3 Zrotation Xrotation Yrotation
    JOINT rThigh
    {
      OFFSET 0 -1.70687 -2.19456
      CHANNELS 3 Zrotation Xrotation Yrotation
      JOINT rShin
      {
        OFFSET 0 -36.8199 0.73152
        CHANNELS 3 Zrotation Xrotation Yrotation
        JOINT rFoot
        {
          OFFSET 0.73152 -45.1104 -5.12064
          CHANNELS 3 Zrotation Xrotation Yrotation
          End Site
          {
            OFFSET -1.1221 -3.69964 12.103
          }
        }
      }
    }
  }
  JOINT lButtock
  {
    OFFSET 8.77824 4.35084 1.2192
    CHANNELS 3 Zrotation Xrotation Yrotation
    JOINT lThigh
    {
      OFFSET 0 -1.70687 -2.19456
      CHANNELS 3 Zrotation Xrotation Yrotation
      JOINT lShin
      {
        OFFSET 0 -36.8199 0.73152
        CHANNELS 3 Zrotation Xrotation Yrotation
        JOINT lFoot
        {
          OFFSET -0.73152 -45.1104 -5.12064
          CHANNELS 3 Zrotation Xrotation Yrotation
          End Site
          {
            OFFSET 1.1221 -3.69964 12.103
          }
        }
      }
    }
  }
}
MOTION
Frames:	4
Frame Time:	0.03333
-1.75770001624187 56.89510107040405 18.68800000884221 10.046701431274414 18.544193267822266 7.040214538574219 -19.155189514160156 10.124093055725098 -1.8238290548324585 6.401529312133789 -7.344296455383301 -0.5453400611877441 -7.229590892791748 18.144996643066406 -11.3991060256958 10.948897361755371 -26.706506729125977 -20.068906784057617 -0.0 0.0 -0.0 -0.0 0.0 -0.0 -0.0 -0.0 -0.0 52.096500396728516 32.56560134887695 4.836776256561279 -20.41500473022461 -13.542781829833984 39.69709777832031 -0.07355977594852448 8.4161376953125 1.1903643608093262 0.0 0.0 0.0 0.0 0.0 0.0 0.0 0.0 0.0 7.730902194976807 5.47491455078125 0.4173222780227661 0.0 0.0 0.0 2.905566453933716 0.9650754332542419 0.10300818830728531 0.0 0.0 0.0 10.278596878051758 0.7318810820579529 0.026273518800735474 0.0 0.0 0.0 2.221662998199463 -0.7334509491920471 -0.20832103490829468 -0.0 -0.0 -0.0 -67.20160675048828 36.4922981262207 -12.628289222717285 15.976903915405273 -8.665702819824219 -29.62380027770996 0.315991073846817 15.79210376739502 -2.2780838012695312 0.0 0.0 -0.0 0.0 0.0 -0.0 0.0 0.0 -0.0 -7.730902194976807 5.47491455078125 -0.4173222780227661 0.0 0.0 -0.0 -2.905566453933716 0.9650754332542419 -0.10300818830728531 0.0 0.0 -0.0 -10.278596878051758 0.7318810820579529 -0.026273518800735474 0.0 0.0 -0.0 -2.221662998199463 -0.7334509491920471 0.20832103490829468 -0.0 0.0 -0.0 -62.597286224365234 -57.328208923339844 -51.877689361572266 -2.2582738399505615 71.59837341308594 2.8635780811309814 1.2698615789413452 -3.1709160804748535 10.298992156982422 0.0 0.0 0.0 5.978682518005371 13.423211097717285 3.040090799331665 -0.1827205866575241 29.309202194213867 -2.3551344871520996 13.07063102722168 -22.069889068603516 33.229610443115234
-1.7791000162105775 56.870001554489136 18.689000008816947 9.940106391906738 18.468894958496094 6.976504802703857 -19.0889949798584 9.982364654541016 -2.00131893157959 6.418938159942627 -7.371067047119141 -0.5841785669326782 -7.402570724487305 18.441593170166016 -11.350696563720703 11.289803504943848 -26.687898635864258 -19.92479705810547 -0.0 0.0 -0.0 -0.0 0.0 -0.0 0.0 0.0 -0.0 52.30339813232422 32.635902404785156 4.728104591369629 -20.27949333190918 -13.367500305175781 39.36250305175781 -0.07791823893785477 8.620736122131348 1.219856858253479 -0.0 -0.0 -0.0 -0.0 -0.0 -0.0 -0.0 -0.0 -0.0 7.730902194976807 5.47491455078125 0.4173222780227661 -0.0 -0.0 -0.0 2.905566453933716 0.9650754332542419 0.10300818830728531 -0.0 -0.0 -0.0 10.278596878051758 0.7318810820579529 0.026273518800735474 -0.0 -0.0 -0.0 2.221662998199463 -0.7334509491920471 -0.20832103490829468 0.0 0.0 -0.0 -67.46199035644531 36.32249450683594 -12.211295127868652 15.913002967834473 -8.606550216674805 -29.489501953125 0.31659457087516785 15.806692123413086 -2.2803006172180176 -0.0 0.0 -0.0 -0.0 0.0 -0.0 -0.0 0.0 -0.0 -7.730902194976807 5.47491455078125 -0.4173222780227661 -0.0 0.0 -0.0 -2.905566453933716 0.9650754332542419 -0.10300818830728531 -0.0 0.0 -0.0 -10.278596878051758 0.7318810820579529 -0.026273518800735474 -0.0 0.0 -0.0 -2.221662998199463 -0.7334509491920471 0.20832103490829468 -0.0 0.0 -0.0 -62.468902587890625 -57.37260818481445 -51.87590408325195 -2.2593297958374023 71.60354614257812 2.863691806793213 1.2902312278747559 -3.257547616958618 10.315004348754883 0.0 0.0 0.0 6.025564670562744 13.462699890136719 2.9871349334716797 -0.18361741304397583 29.33209228515625 -2.3559436798095703 13.131184577941895 -21.994609832763672 33.41949462890625
-1.7822000161686447 56.836098432540894 18.689000008816947 9.864893913269043 18.407995223999023 6.9682111740112305 -19.05339241027832 9.820268630981445 -2.1859562397003174 6.44661808013916 -7.410472869873047 -0.6234967112541199 -7.660521984100342 18.768503189086914 -11.258706092834473 11.768807411193848 -26.658809661865234 -19.669198989868164 -0.0 0.0 -0.0 -0.0 0.0 -0.0 -0.0 0.0 -0.0 52.54519271850586 32.709712982177734 4.562655448913574 -20.153697967529297 -13.206194877624512 39.05419921875 -0.09644775837659836 8.8236083984375 1.250034213066101 -0.0 0.0 -0.0 -0.0 0.0 -0.0 -0.0 0.0 -0.0 7.730902194976807 5.47491455078125 0.4173222780227661 -0.0 0.0 -0.0 2.905566453933716 0.9650754332542419 0.10300818830728531 -0.0 0.0 -0.0 10.278596878051758 0.7318810820579529 0.026273518800735474 -0.0 0.0 -0.0 2.221662998199463 -0.7334509491920471 -0.20832103490829468 -0.0 0.0 -0.0 -67.72449493408203 36.18110275268555 -11.785404205322266 15.847286224365234 -8.546196937561035 -29.350988388061523 0.31597399711608887 15.79189682006836 -2.2779910564422607 -0.0 0.0 -0.0 -0.0 0.0 -0.0 -0.0 0.0 -0.0 -7.730902194976807 5.47491455078125 -0.4173222780227661 -0.0 0.0 -0.0 -2.905566453933716 0.9650754332542419 -0.10300818830728531 -0.0 0.0 -0.0 -10.278596878051758 0.7318810820579529 -0.026273518800735474 -0.0 0.0 -0.0 -2.221662998199463 -0.7334509491920471 0.20832103490829468 -0.0 0.0 -0.0 -62.402015686035156 -57.40620422363281 -51.91660690307617 -2.2637522220611572 71.62508392333984 2.8681187629699707 1.3109254837036133 -3.3340296745300293 10.34380054473877 0.0 0.0 0.0 6.048765659332275 13.519198417663574 2.9264402389526367 -0.18466314673423767 29.327898025512695 -2.3562629222869873 13.176175117492676 -21.90290641784668 33.60249328613281
-1.7894000164233148 56.806302070617676 18.698000008953386 9.883798599243164 18.380002975463867 6.961503505706787 -19.07790184020996 9.768046379089355 -2.26710844039917 6.506536960601807 -7.3915534019470215 -0.6415996551513672 -7.759146690368652 18.81090545654297 -11.329605102539062 11.861496925354004 -26.601890563964844 -19.797401428222656 -0.0 0.0 -0.0 -0.0 0.0 -0.0 -0.0 -0.0 -0.0 52.68659210205078 32.620697021484375 4.456882953643799 -20.05409812927246 -13.079792022705078 38.81159210205078 -0.11096694320440292 8.841588973999023 1.253798484802246 -0.0 0.0 0.0 -0.0 0.0 0.0 -0.0 0.0 0.0 7.730902194976807 5.47491455078125 0.4173222780227661 -0.0 0.0 0.0 2.905566453933716 0.9650754332542419 0.10300818830728531 -0.0 0.0 0.0 10.278596878051758 0.7318810820579529 0.026273518800735474 -0.0 0.0 0.0 2.221662998199463 -0.7334509491920471 -0.20832103490829468 -0.0 -0.0 -0.0 -67.7955093383789 36.13359832763672 -11.739701271057129 15.746896743774414 -8.45434856414795 -29.13999366760254 0.3164396286010742 15.80329704284668 -2.2796802520751953 -0.0 0.0 -0.0 -0.0 0.0 -0.0 -0.0 0.0 -0.0 -7.730902194976807 5.47491455078125 -0.4173222780227661 -0.0 0.0 -0.0 -2.905566453933716 0.9650754332542419 -0.10300818830728531 -0.0 0.0 -0.0 -10.278596878051758 0.7318810820579529 -0.026273518800735474 -0.0 0.0 -0.0 -2.221662998199463 -0.7334509491920471 0.20832103490829468 -0.0 0.0 -0.0 -62.48561477661133 -57.415706634521484 -52.039512634277344 -2.2772862911224365 71.68909454345703 2.8801989555358887 1.3261220455169678 -3.3462700843811035 10.426692008972168 0.0 0.0 0.0 6.041371822357178 13.593202590942383 2.9142158031463623 -0.18450453877449036 29.298601150512695 -2.3596270084381104 13.182507514953613 -21.860206604003906 33.66499710083008
